Coordinates
version=1
nRows=14
nColumns=24
inDegrees=yes

Units are S.I. units (second, meters, Newtons, ...)
Angles are in degrees.

endheader
time	pelvis_tilt	pelvis_list	pelvis_rotation	pelvis_tx	pelvis_ty	pelvis_tz	hip_flexion_r	hip_adduction_r	hip_rotation_r	knee_angle_r	ankle_angle_r	subtalar_angle_r	mtp_angle_r	hip_flexion_l	hip_adduction_l	hip_rotation_l	knee_angle_l	ankle_angle_l	subtalar_angle_l	mtp_angle_l	lumbar_extension	lumbar_bending	lumbar_rotation
      4.33500000	    -16.94079593	     -5.96297809	      2.61338869	     -1.53663606	     -0.02103366	     -0.31688852	     24.27289266	     10.48735090	     -3.26141328	    -23.04040521	      8.78124358	    -18.00270679	     -6.79344474	     32.78505517	     -8.19932768	     -3.53871414	    -61.71665313	     -6.63551505	     -5.91827605	     15.65718247	     23.57581400	      2.28904894	    -17.02837793
      4.34000000	    -16.96514422	     -5.60847286	      2.41123993	     -1.53051854	     -0.01995535	     -0.31668446	     23.44908012	     10.26144181	     -2.84502382	    -22.38239386	      8.86184807	    -17.83265945	     -7.01247643	     33.46612245	     -7.91965410	     -3.95488946	    -61.18470250	     -5.99692250	     -6.00900961	     15.62931171	     23.54693515	      2.05119688	    -16.59418398
      4.34500000	    -16.98632571	     -5.26527102	      2.20516814	     -1.52443732	     -0.01895416	     -0.31648592	     22.63263289	     10.03390886	     -2.45175039	    -21.73020806	      8.94448775	    -17.63540224	     -7.21366695	     34.13444239	     -7.66542468	     -4.38756999	    -60.59579386	     -5.39242275	     -6.07156075	     15.59726011	     23.50849895	      1.82697077	    -16.16816572
      4.35000000	    -17.00525677	     -4.93587574	      1.99644711	     -1.51838997	     -0.01803186	     -0.31628678	     21.82412861	      9.80738951	     -2.08199701	    -21.08248892	      9.02995045	    -17.41154868	     -7.38773114	     34.78947010	     -7.43780891	     -4.83024940	    -59.95026858	     -4.82201826	     -6.10897819	     15.56188467	     23.46285380	      1.61564221	    -15.75605116
      4.35500000	    -16.98701634	     -4.63518211	      1.76792604	     -1.51238354	     -0.01716088	     -0.31609038	     20.98014853	      9.60696072	     -1.69904540	    -20.43203725	      9.11966217	    -17.14746274	     -7.59338929	     35.39410742	     -7.26583584	     -5.30644584	    -59.25648454	     -4.29435747	     -6.16586793	     15.49196243	     23.37002056	      1.44628210	    -15.33890092
      4.36000000	    -17.02089730	     -4.32646393	      1.56733890	     -1.50639667	     -0.01641466	     -0.31591181	     20.21604560	      9.36943504	     -1.41644851	    -19.80610400	      9.19963442	    -16.89061234	     -7.69515468	     36.03814616	     -7.07087536	     -5.75041896	    -58.49331695	     -3.77833373	     -6.12078460	     15.46655360	     23.33159102	      1.24640757	    -14.96136184
      4.36500000	    -17.01513774	     -4.03986808	      1.33265482	     -1.50045140	     -0.01571535	     -0.31572493	     19.41442471	      9.15612457	     -1.10059186	    -19.18043420	      9.28537449	    -16.59150851	     -7.77041987	     36.62051381	     -6.93375138	     -6.24497359	    -57.67727058	     -3.30446019	     -6.10860471	     15.42304340	     23.24225964	      1.08721609	    -14.56231934
      4.37000000	    -17.00700222	     -3.76875287	      1.10485205	     -1.49452899	     -0.01508832	     -0.31555824	     18.62301811	      8.94443179	     -0.81806696	    -18.56470775	      9.36273918	    -16.28553984	     -7.80835448	     37.18216285	     -6.81533241	     -6.73757993	    -56.80115035	     -2.85459720	     -6.05855348	     15.38196522	     23.14724019	      0.93939803	    -14.18475835
      4.37500000	    -16.99051751	     -3.51473666	      0.87263507	     -1.48864201	     -0.01453438	     -0.31539679	     17.83517716	      8.74087430	     -0.55701988	    -17.95887205	      9.43665764	    -15.96726397	     -7.80628538	     37.71647210	     -6.72616186	     -7.24218852	    -55.86836226	     -2.42908410	     -5.98833065	     15.33850685	     23.03769492	      0.80872409	    -13.81495156
      4.38000000	    -16.96412133	     -3.27346164	      0.63582245	     -1.48278060	     -0.01404320	     -0.31524878	     17.04995371	      8.54100972	     -0.31459743	    -17.36651795	      9.50254614	    -15.63908417	     -7.76199644	     38.21616135	     -6.65972915	     -7.75970181	    -54.87387885	     -2.02426516	     -5.89069455	     15.29170633	     22.91304789	      0.69132177	    -13.45092751
      4.38500000	    -16.93327118	     -3.04387538	      0.39942094	     -1.47694186	     -0.01361944	     -0.31511451	     16.27300893	      8.34283824	     -0.09053748	    -16.78857607	      9.56116412	    -15.30422485	     -7.67382834	     38.68738730	     -6.61206826	     -8.28717907	    -53.81852865	     -1.63829732	     -5.75695824	     15.24496777	     22.78140270	      0.58363252	    -13.09642234
      4.39000000	    -16.86022638	     -2.83320550	      0.15344729	     -1.47113365	     -0.01323283	     -0.31499791	     15.45968793	      8.15746098	      0.13274781	    -16.21628971	      9.62097243	    -14.96510581	     -7.50388843	     39.08797881	     -6.59476766	     -8.83864509	    -52.70583862	     -1.27433979	     -5.63860799	     15.17035629	     22.59718291	      0.49837584	    -12.76040064
      4.39500000	    -16.85251628	     -2.62744214	     -0.07839841	     -1.46534419	     -0.01296574	     -0.31488682	     14.74335234	      7.96534291	      0.29537037	    -15.68247376	      9.65437904	    -14.63623232	     -7.34104683	     39.53403459	     -6.57299842	     -9.35765183	    -51.52718661	     -0.92657499	     -5.39227028	     15.13817883	     22.48251235	      0.40505696	    -12.42378967
      4.40000000	    -16.78018838	     -2.42783349	     -0.32284732	     -1.45957414	     -0.01271977	     -0.31478295	     13.95898885	      7.77445876	      0.49190791	    -15.14643378	      9.71529135	    -14.28897774	     -7.07691322	     39.88217696	     -6.57686286	     -9.93281301	    -50.29438209	     -0.60510045	     -5.18083732	     15.07918412	     22.29417974	      0.32146243	    -12.09972663
